<svg width="40" height="40" viewBox="0 0 40 40" fill="none" xmlns="http://www.w3.org/2000/svg">
<rect width="40" height="40" rx="20" fill="black"/>
<path d="M20.0033 10.163C23.2098 10.163 23.5862 10.1773 24.8535 10.2345C26.0255 10.2869 26.6592 10.4823 27.0832 10.649C27.6454 10.8682 28.0457 11.1255 28.4649 11.5447C28.8842 11.964 29.1462 12.3642 29.3606 12.9264C29.5226 13.3504 29.7227 13.9841 29.7751 15.1562C29.8323 16.4235 29.8466 16.7999 29.8466 20.0064C29.8466 23.2128 29.8323 23.5892 29.7751 24.8565C29.7227 26.0286 29.5274 26.6623 29.3606 27.0863C29.1415 27.6485 28.8842 28.0487 28.4649 28.468C28.0457 28.8872 27.6454 29.1493 27.0832 29.3637C26.6592 29.5257 26.0255 29.7258 24.8535 29.7782C23.5862 29.8354 23.2098 29.8497 20.0033 29.8497C16.7968 29.8497 16.4205 29.8354 15.1531 29.7782C13.9811 29.7258 13.3474 29.5304 12.9234 29.3637C12.3612 29.1445 11.9609 28.8872 11.5417 28.468C11.1224 28.0487 10.8604 27.6485 10.646 27.0863C10.484 26.6623 10.2839 26.0286 10.2315 24.8565C10.1743 23.5892 10.16 23.2128 10.16 20.0064C10.16 16.7999 10.1743 16.4235 10.2315 15.1562C10.2839 13.9841 10.4792 13.3504 10.646 12.9264C10.8651 12.3642 11.1224 11.964 11.5417 11.5447C11.9609 11.1255 12.3612 10.8634 12.9234 10.649C13.3474 10.487 13.9811 10.2869 15.1531 10.2345C16.4205 10.1726 16.8016 10.163 20.0033 10.163ZM20.0033 8C16.7444 8 16.3347 8.01429 15.0531 8.07147C13.7762 8.12864 12.9043 8.33351 12.142 8.6289C11.3511 8.93383 10.6841 9.34833 10.0171 10.0154C9.35004 10.6824 8.9403 11.3542 8.63061 12.1403C8.33522 12.9026 8.13035 13.7745 8.07318 15.0561C8.016 16.333 8.00171 16.7427 8.00171 20.0016C8.00171 23.2605 8.016 23.6702 8.07318 24.9518C8.13035 26.2287 8.33522 27.1006 8.63061 27.8677C8.93554 28.6585 9.35004 29.3256 10.0171 29.9926C10.6841 30.6596 11.3559 31.0693 12.142 31.379C12.9043 31.6744 13.7762 31.8793 15.0578 31.9365C16.3395 31.9936 16.7444 32.0079 20.0081 32.0079C23.2717 32.0079 23.6767 31.9936 24.9583 31.9365C26.2352 31.8793 27.1071 31.6744 27.8741 31.379C28.665 31.0741 29.3321 30.6596 29.9991 29.9926C30.6661 29.3256 31.0758 28.6538 31.3855 27.8677C31.6809 27.1053 31.8858 26.2335 31.943 24.9518C32.0001 23.6702 32.0144 23.2652 32.0144 20.0016C32.0144 16.738 32.0001 16.333 31.943 15.0513C31.8858 13.7745 31.6809 12.9026 31.3855 12.1355C31.0806 11.3446 30.6661 10.6776 29.9991 10.0106C29.3321 9.34357 28.6603 8.93383 27.8741 8.62414C27.1118 8.32875 26.2399 8.12388 24.9583 8.0667C23.6719 8.01429 23.2622 8 20.0033 8Z" fill="white"/>
<path d="M20.0031 13.8413C16.6013 13.8413 13.8379 16.5999 13.8379 20.0065C13.8379 23.413 16.5965 26.1716 20.0031 26.1716C23.4096 26.1716 26.1682 23.413 26.1682 20.0065C26.1682 16.5999 23.4096 13.8413 20.0031 13.8413ZM20.0031 24.0038C17.7924 24.0038 16.0009 22.2124 16.0009 20.0017C16.0009 17.791 17.7924 15.9996 20.0031 15.9996C22.2137 15.9996 24.0052 17.791 24.0052 20.0017C24.0052 22.2124 22.2137 24.0038 20.0031 24.0038Z" fill="white"/>
<path d="M26.4113 15.0325C27.2059 15.0325 27.8501 14.3883 27.8501 13.5936C27.8501 12.799 27.2059 12.1548 26.4113 12.1548C25.6166 12.1548 24.9724 12.799 24.9724 13.5936C24.9724 14.3883 25.6166 15.0325 26.4113 15.0325Z" fill="white"/>
</svg>
