<svg width="12" height="15" viewBox="0 0 12 15" fill="none" xmlns="http://www.w3.org/2000/svg">
<circle cx="5.52673" cy="5.52673" r="5.27673" fill="white" stroke="#C1C1C1" stroke-width="0.5"/>
<path d="M4.73726 9.47451V6.119C4.73726 5.57394 4.2954 5.13208 3.75034 5.13208V5.13208C3.20529 5.13208 2.76343 5.57394 2.76343 6.119V6.119C2.76343 6.66405 3.20528 7.10591 3.75034 7.10591H7.30324C7.8483 7.10591 8.29016 6.66405 8.29016 6.119V6.119C8.29016 5.57394 7.8483 5.13208 7.30324 5.13208V5.13208C6.75818 5.13208 6.31632 5.57394 6.31632 6.119V9.47451" stroke="#FFD600" stroke-linecap="round"/>
<path fill-rule="evenodd" clip-rule="evenodd" d="M7.89515 11.5469C7.89515 11.4367 7.78014 11.3638 7.67866 11.4068C7.01723 11.6867 6.28997 11.8415 5.52656 11.8415C4.76315 11.8415 4.03589 11.6867 3.37445 11.4068C3.27297 11.3638 3.15796 11.4367 3.15796 11.5469V12.631C3.15796 13.9391 4.21842 14.9996 5.52656 14.9996C6.8347 14.9996 7.89515 13.9391 7.89515 12.631V11.5469Z" fill="#C1C1C1"/>
</svg>
